<svg width="32" height="32" viewBox="0 0 32 32" fill="none" xmlns="http://www.w3.org/2000/svg">
<path d="M4.47925 9.96608C4.5069 10.4084 4.54837 10.9614 4.60367 11.625C4.68661 12.2609 4.76956 12.9382 4.8525 13.6571C4.93544 14.3483 5.01839 15.0395 5.10133 15.7307C5.21192 16.4219 5.30869 17.0578 5.39164 17.6384C5.69576 17.0301 6.06901 16.2836 6.51138 15.3989C6.95375 14.5142 7.40994 13.6709 7.87996 12.8691C8.37762 12.0397 8.87528 11.3485 9.37295 10.7955C9.89826 10.2149 10.3683 9.92461 10.783 9.92461C11.2254 9.92461 11.6263 10.1458 11.9857 10.5882C12.3728 11.0029 12.7045 11.5144 12.981 12.1226C13.2575 12.7309 13.4925 13.3806 13.686 14.0718C13.9072 14.763 14.0869 15.3713 14.2252 15.8966C14.3358 15.5372 14.474 15.1363 14.6399 14.6939C14.8334 14.2239 15.027 13.7539 15.2205 13.2838C15.4417 12.7862 15.6767 12.3023 15.9255 11.8323C16.202 11.3623 16.4923 10.9476 16.7964 10.5882C17.1559 10.2011 17.5429 9.92461 17.9577 9.75872C18.3724 9.56518 18.6765 9.46842 18.87 9.46842C19.1189 9.46842 19.4092 9.55136 19.7409 9.71725C20.1004 9.85549 20.4598 10.049 20.8192 10.2979C21.1786 10.5467 21.5104 10.8508 21.8145 11.2102C22.1463 11.542 22.409 11.8876 22.6025 12.247C22.9896 12.9935 23.2937 13.8092 23.5149 14.6939C23.7637 15.5786 23.9434 16.4219 24.054 17.2237C24.1646 18.0255 24.2337 18.7443 24.2614 19.3802C24.3167 19.9885 24.3582 20.417 24.3858 20.6659C24.3858 21.0253 24.3443 21.3018 24.2614 21.4953C24.1785 21.6612 24.0264 21.7994 23.8052 21.91C23.5011 22.0483 23.2384 22.1036 23.0172 22.0759C22.7961 22.0206 22.6163 21.9238 22.4781 21.7856C22.3399 21.6474 22.2293 21.4953 22.1463 21.3294C22.0634 21.1359 22.0081 20.97 21.9804 20.8317C21.8975 20.1958 21.8007 19.5461 21.6901 18.8826C21.6072 18.219 21.5104 17.5831 21.3998 16.9748C21.2892 16.3389 21.151 15.7583 20.9851 15.233C20.8469 14.6801 20.6948 14.1962 20.5289 13.7815C20.4736 13.6709 20.3769 13.5327 20.2386 13.3668C20.128 13.1732 19.9898 12.9935 19.8239 12.8276C19.6857 12.6618 19.5474 12.5235 19.4092 12.4129C19.2709 12.3023 19.1742 12.2332 19.1189 12.2056C18.8424 12.2056 18.5521 12.4682 18.248 12.9935C17.9438 13.4912 17.6535 14.0995 17.377 14.8183C17.1006 15.5372 16.8379 16.2975 16.5891 17.0993C16.3679 17.8734 16.202 18.537 16.0914 19.0899C16.0914 19.8088 15.9532 20.3479 15.6767 20.7073C15.4002 21.0391 15.1099 21.205 14.8058 21.205C14.5017 21.205 14.1699 21.0944 13.8105 20.8732C13.4787 20.6244 13.2575 20.3479 13.1469 20.0438C12.981 19.6014 12.8013 19.1037 12.6078 18.5508C12.4142 17.9978 12.2069 17.431 11.9857 16.8504C11.7921 16.2698 11.5848 15.703 11.3636 15.1501C11.1701 14.5971 10.9765 14.0995 10.783 13.6571C10.3959 14.1824 10.0089 14.763 9.62178 15.3989C9.26236 16.0348 8.90293 16.6845 8.54351 17.3481C8.21173 18.0116 7.87996 18.6752 7.54818 19.3388C7.24405 19.9747 6.95375 20.5414 6.67727 21.0391C6.48373 21.3432 6.27637 21.6197 6.05519 21.8685C5.834 22.0897 5.57135 22.2003 5.26722 22.2003C5.04604 22.2003 4.81103 22.1036 4.5622 21.91C4.31336 21.6888 4.07836 21.4262 3.85717 21.122C3.63599 20.8179 3.42863 20.4723 3.23509 20.0852C3.0692 19.6982 2.94479 19.3111 2.86184 18.924C2.64066 17.7352 2.44712 16.4357 2.28124 15.0257C2.143 13.588 2.00476 12.1917 1.86652 10.837C1.83887 10.367 1.89416 9.93843 2.0324 9.55136C2.19829 9.13664 2.50242 8.86016 2.94479 8.72192C3.4148 8.63898 3.77423 8.7081 4.02306 8.92928C4.27189 9.15046 4.42396 9.49606 4.47925 9.96608Z" fill="white"/>
<path d="M30.9837 22.698C31.122 23.6933 30.7073 24.2601 29.7396 24.3983C29.2419 24.4536 28.8272 24.3154 28.4954 23.9836C28.1913 23.6518 27.9978 23.2509 27.9148 22.7809C27.8319 22.2833 27.8595 21.7994 27.9978 21.3294C28.1637 20.8594 28.4678 20.5967 28.9101 20.5414C29.4631 20.4585 29.9331 20.6659 30.3202 21.1635C30.7073 21.6335 30.9285 22.145 30.9837 22.698Z" fill="white"/>
</svg>
