<svg width="1652" height="744" viewBox="0 0 1652 744" fill="none" xmlns="http://www.w3.org/2000/svg">
<path d="M71.5152 407.584C77.965 409.007 100.735 416.412 153.373 450.221C196.415 477.866 268.668 532.721 309.666 561.855C366.668 602.362 381.107 603.483 386.29 603.369C388.804 603.315 390.636 600.504 407.374 508.79C424.111 417.076 455.585 235.84 474.59 144.046C493.596 52.2527 499.181 55.3943 541.218 110.054C583.254 164.714 661.573 270.797 719.585 342.626C777.598 414.455 812.931 448.817 836.995 470.583C871.58 501.866 898.917 515.506 921.604 525.239C930.03 528.854 933.031 527.641 935.419 524.382C941.351 516.286 941.175 495.896 935.11 445.25C930.634 407.874 918.877 347.394 913.418 313.289C907.958 279.185 908.016 273.441 910.681 269.775C916.223 262.153 941.551 267.077 982.629 278.798C1006.21 286.677 1035.33 298.478 1134.59 363.78C1233.86 429.082 1402.39 547.527 1580.39 671.575" stroke="#F7F5F1" stroke-opacity="0.05" stroke-width="143" stroke-linecap="round"/>
</svg>
