<svg width="1665" height="1084" viewBox="0 0 1665 1084" fill="none" xmlns="http://www.w3.org/2000/svg">
<path d="M87.0174 448.032C87.8159 447.61 88.6145 447.187 214.148 389.816C339.681 332.446 589.926 218.139 726.13 157.138C862.335 96.1364 876.916 91.9038 885.917 89.4662C894.919 87.0285 897.898 86.5141 900.407 87.4138C902.917 88.3134 904.867 90.6427 905.137 93.6107C905.407 96.5786 903.938 100.115 811.915 218.545C719.891 336.976 537.358 570.193 438.751 698.451C340.145 826.709 330.997 842.939 325.757 852.722C320.516 862.505 319.46 865.347 321.004 867.821C322.548 870.296 326.725 872.316 333.113 872.739C339.501 873.163 347.975 871.93 477.388 795.065C606.801 718.2 856.897 565.741 991.045 484.872C1125.19 404.003 1135.81 399.344 1144.47 396.313C1153.12 393.282 1159.49 392.019 1163.76 393.258C1168.03 394.496 1170.02 398.274 1168.69 407.872C1167.37 417.47 1162.68 432.775 1108.23 519.857C1053.78 606.939 949.73 765.335 892.853 853.327C835.977 941.318 829.432 954.105 824.561 964.66C819.689 975.214 816.69 983.149 816.484 988.643C816.279 994.137 818.958 996.95 827.693 996.208C836.427 995.466 851.136 991.083 939.841 948.783C1028.55 906.483 1190.8 826.399 1298.73 777.365C1406.67 728.332 1455.36 712.777 1485.5 704.22C1542.8 693.706 1560.5 694.85 1568.52 696.312C1572.18 697.134 1575.03 698.119 1577.96 699.133" stroke="#E3DBCC" stroke-width="174" stroke-linecap="round"/>
</svg>
