<svg width="362" height="362" viewBox="0 0 362 362" fill="none" xmlns="http://www.w3.org/2000/svg">
<rect width="362" height="362" fill="white"/>
<path d="M112.5 45.8051C131.907 18.5392 157.111 8.011 190.5 10.3051C233.678 13.2719 269.154 41.1965 273 84.3051C273.92 94.6169 271.014 110.726 271 110.805C271 110.805 261.125 146.486 257 169.805C244.596 239.929 256.98 352.123 257 352.305H186C178 352.305 170.234 329.473 165 312.805C161.259 300.891 160.303 293.767 159.5 281.305C159.023 273.901 158.792 269.691 159.5 262.305C160.125 255.786 161.22 252.228 162.5 245.805C171.746 199.419 190 171.305 201.5 123.305C203.6 114.54 202 80.3058 198 104.305C194 128.305 167 143.305 159.5 148.805C152 154.305 93.5029 317.796 90.5 320.805L90.4346 320.871C87.4797 323.826 86.0984 325.207 83.5 323.805C81.5787 322.768 81 318.805 81 318.805C88.0003 256.805 104 188.305 106.5 133.805C106.66 130.305 100.864 126.305 98 106.305C96.5609 96.2541 96.3559 90.3246 98 80.3051C100.366 65.8834 104.025 57.7117 112.5 45.8051ZM139 76.8051C130.44 76.8051 123.5 83.7448 123.5 92.3051C123.5 100.865 130.44 107.805 139 107.805C147.56 107.805 154.5 100.865 154.5 92.3051C154.5 83.7448 147.56 76.8051 139 76.8051Z" fill="#4FA83E"/>
<path d="M209 92.4994C209 108.11 203.744 123.267 194.08 135.526C184.415 147.786 170.904 156.435 155.724 160.079C140.545 163.723 124.58 162.151 110.403 155.615C96.2261 149.08 84.6623 137.961 77.575 124.052C70.4878 110.142 68.2899 94.2517 71.3354 78.9406C74.381 63.6296 82.4926 49.7897 94.3634 39.6512C106.234 29.5126 121.172 23.6659 136.771 23.053C152.37 22.4401 167.721 27.0968 180.351 36.2727L165.634 56.529C157.554 50.6588 147.734 47.6797 137.754 48.0718C127.775 48.4639 118.218 52.2043 110.624 58.6903C103.03 65.1764 97.8408 74.0302 95.8925 83.8253C93.9441 93.6204 95.3502 103.786 99.8842 112.685C104.418 121.583 111.816 128.696 120.886 132.877C129.955 137.058 140.168 138.064 149.879 135.733C159.59 133.401 168.234 127.868 174.417 120.025C180.6 112.183 183.962 102.486 183.962 92.4994H209Z" fill="#4FA83E" stroke="white" stroke-width="7" stroke-linejoin="round"/>
</svg>
